<?xml version="1.0" encoding="UTF-8"?>
<svg version="1.1" xmlns="http://www.w3.org/2000/svg" width="83" height="88">
<path d="M0 0 C0.66 0 1.32 0 2 0 C3.17562628 9.33555003 4.34926727 18.67134685 5.52036285 28.00746632 C6.0641907 32.34242238 6.60870628 36.67728977 7.15478516 41.01196289 C7.68159207 45.19386163 8.20660345 49.37598219 8.73036194 53.55826378 C8.9306676 55.15515897 9.13162401 56.75197268 9.33323669 58.34870338 C9.61514851 60.58227403 9.89476126 62.8161212 10.17382812 65.05004883 C10.41365417 66.95866447 10.41365417 66.95866447 10.6583252 68.90583801 C11 72 11 72 11 75 C-14.00755316 75.85472593 -38.97869589 76.1319689 -64 76 C-63.45907481 62.25834188 -61.75737541 48.66869621 -60.04370117 35.03198242 C-59.5580552 31.15198892 -59.08633757 27.27045489 -58.61523438 23.38867188 C-58.30812941 20.91916651 -58.00021668 18.44976143 -57.69140625 15.98046875 C-57.55174942 14.82121384 -57.41209259 13.66195892 -57.26820374 12.46757507 C-57.13143723 11.39828262 -56.99467072 10.32899017 -56.85375977 9.22729492 C-56.73686295 8.28738205 -56.61996613 7.34746918 -56.49952698 6.3790741 C-56 4 -56 4 -54 1 C-49.42964329 8.14508008 -45.24622337 15.49993981 -41.0625 22.875 C-36.4657857 30.97249485 -31.84126001 39.04494262 -27 47 C-26.67427002 46.4237085 -26.34854004 45.84741699 -26.01293945 45.25366211 C-25.55105225 44.43647705 -25.08916504 43.61929199 -24.61328125 42.77734375 C-24.09282227 41.85646973 -23.57236328 40.9355957 -23.03613281 39.98681641 C-21.87814379 37.93819277 -20.71993739 35.88969199 -19.56152344 33.84130859 C-16.46171739 28.35929071 -13.36568773 22.87520318 -10.27734375 17.38671875 C-9.39018677 15.81192749 -9.39018677 15.81192749 -8.48510742 14.20532227 C-7.33942175 12.17139569 -6.1950271 10.13674129 -5.05200195 8.10131836 C-4.53468506 7.18358643 -4.01736816 6.26585449 -3.484375 5.3203125 C-2.79939941 4.10239014 -2.79939941 4.10239014 -2.10058594 2.85986328 C-1 1 -1 1 0 0 Z " fill="#9D9D9A" transform="translate(68,8)"/>
<path d="M0 0 C0.66 0 1.32 0 2 0 C3.17562628 9.33555003 4.34926727 18.67134685 5.52036285 28.00746632 C6.0641907 32.34242238 6.60870628 36.67728977 7.15478516 41.01196289 C7.68159207 45.19386163 8.20660345 49.37598219 8.73036194 53.55826378 C8.9306676 55.15515897 9.13162401 56.75197268 9.33323669 58.34870338 C9.61514851 60.58227403 9.89476126 62.8161212 10.17382812 65.05004883 C10.33371216 66.32245926 10.49359619 67.59486969 10.6583252 68.90583801 C11 72 11 72 11 75 C3.08 75 -4.84 75 -13 75 C-15.21038488 71.08159044 -17.40565322 67.17306846 -19.55859375 63.2265625 C-21.00959382 60.61948576 -22.42995537 58.45171504 -24.28515625 56.0859375 C-26.42010213 53.2539559 -27.51601314 51.52887505 -28 48 C-25.91789535 42.63392541 -22.87035185 38.16560881 -19.62011719 33.44189453 C-16.75486742 29.12329474 -14.2787615 24.58337523 -11.75 20.0625 C-9.84663213 16.70058343 -7.92791006 13.34789496 -6 10 C-5.1965918 8.58823486 -5.1965918 8.58823486 -4.37695312 7.14794922 C-3.5793457 5.77340576 -3.5793457 5.77340576 -2.765625 4.37109375 C-2.28383789 3.53376709 -1.80205078 2.69644043 -1.30566406 1.83374023 C-0.87479492 1.22860596 -0.44392578 0.62347168 0 0 Z " fill="#FDD25F" transform="translate(68,8)"/>
<path d="M0 0 C0.66 0 1.32 0 2 0 C2 2.97 2 5.94 2 9 C0.35 9.33 -1.3 9.66 -3 10 C-3.70074844 13.153368 -4 15.72724974 -4 19 C-4.99 18.67 -5.98 18.34 -7 18 C-7.66 18.99 -8.32 19.98 -9 21 C-9.66 21 -10.32 21 -11 21 C-9.52840671 15.86541905 -7.24672098 11.65314066 -4.5 7.125 C-3.89478516 6.09246094 -3.89478516 6.09246094 -3.27734375 5.0390625 C-2.24494852 3.32181102 -1.12888572 1.65541825 0 0 Z " fill="#FBDD8D" transform="translate(68,8)"/>
<path d="M0 0 C0.33 0 0.66 0 1 0 C1.66 5.94 2.32 11.88 3 18 C-4.92 18 -12.84 18 -21 18 C-21 17.67 -21 17.34 -21 17 C-14.07 17 -7.14 17 0 17 C0 11.39 0 5.78 0 0 Z " fill="#FAE5AE" transform="translate(76,65)"/>
<path d="M0 0 C0.66 0.99 1.32 1.98 2 3 C1.34 3 0.68 3 0 3 C0.33 5.31 0.66 7.62 1 10 C-0.98 10.99 -0.98 10.99 -3 12 C-3.99 11.34 -4.98 10.68 -6 10 C-4.02 6.7 -2.04 3.4 0 0 Z " fill="#F9DC8E" transform="translate(46,46)"/>
<path d="M0 0 C0.33 1.32 0.66 2.64 1 4 C0.34 4 -0.32 4 -1 4 C-0.896875 4.763125 -0.79375 5.52625 -0.6875 6.3125 C-0.790625 7.199375 -0.89375 8.08625 -1 9 C-3.5 10.8125 -3.5 10.8125 -6 12 C-4.43358249 7.69235185 -2.31663844 3.93828536 0 0 Z " fill="#FCE0A6" transform="translate(53,34)"/>
</svg>
